<svg width="20" height="20" viewBox="0 0 20 20" fill="none" xmlns="http://www.w3.org/2000/svg">
<path d="M8.90529 16.3106C12.9951 16.3106 16.3106 12.9951 16.3106 8.90529C16.3106 4.81546 12.9951 1.5 8.90529 1.5C4.81546 1.5 1.5 4.81546 1.5 8.90529C1.5 12.9951 4.81546 16.3106 8.90529 16.3106Z" fill="#595667"/>
<path fill-rule="evenodd" clip-rule="evenodd" d="M13.137 13.1373C13.4493 12.825 13.9555 12.825 14.2678 13.1373L18.2656 17.1351C18.5778 17.4473 18.5778 17.9536 18.2656 18.2658C17.9533 18.5781 17.4471 18.5781 17.1348 18.2658L13.137 14.268C12.8248 13.9558 12.8248 13.4495 13.137 13.1373Z" fill="#595667"/>
<path fill-rule="evenodd" clip-rule="evenodd" d="M5.70728 8.90533C5.70728 8.46375 6.06525 8.10577 6.50683 8.10577H11.3042C11.7458 8.10577 12.1037 8.46375 12.1037 8.90533C12.1037 9.34692 11.7458 9.70489 11.3042 9.70489H6.50683C6.06525 9.70489 5.70728 9.34692 5.70728 8.90533Z" fill="white"/>
</svg>
